<svg width="94" height="93" viewBox="0 0 94 93" fill="none" xmlns="http://www.w3.org/2000/svg">
<g clip-path="url(#clip0_1_80)">
<path d="M36.0913 62.3525C38.2138 68.1128 41.4242 72.2024 45.0575 73.2975V60.1545C41.9248 60.3741 38.9035 61.114 36.0913 62.3525Z" fill="#252629"/>
<path d="M33.4832 48.4341C33.6185 52.053 34.1248 55.4949 34.9287 58.6146C38.1108 57.268 41.528 56.4961 45.0574 56.2794V48.4341H33.4832Z" fill="#252629"/>
<path d="M36.0914 30.6402C38.9038 31.8787 41.9253 32.6186 45.0574 32.8384V19.6954C41.4241 20.7905 38.2141 24.8801 36.0914 30.6402Z" fill="#252629"/>
<path d="M34.9289 34.3781C34.1251 37.4974 33.6188 40.9398 33.4834 44.5591H45.0577V36.7136C41.5286 36.4971 38.1114 35.7248 34.9289 34.3781Z" fill="#252629"/>
<path d="M26.3933 28.9104C22.6063 33.3202 20.3723 38.7568 19.9636 44.5589H29.6108C29.7549 40.2389 30.3704 36.1898 31.3775 32.5581C29.6126 31.521 27.9463 30.303 26.3933 28.9104Z" fill="#252629"/>
<path d="M29.1112 26.1527C30.2147 27.129 31.3844 28.0013 32.6111 28.7752C33.713 25.9213 35.085 23.4445 36.6584 21.412C33.9177 22.5433 31.3797 24.1462 29.1112 26.1527Z" fill="#252629"/>
<path d="M29.6108 48.4341H19.9636C20.3727 54.2367 22.6077 59.6744 26.3931 64.0822C27.9459 62.6896 29.6122 61.4712 31.3773 60.4342C30.3704 56.8026 29.7549 52.7537 29.6108 48.4341Z" fill="#252629"/>
<path d="M32.611 64.2178C31.3845 64.9915 30.2151 65.8638 29.1113 66.8402C31.3806 68.8468 33.9182 70.4489 36.6575 71.5802C35.0845 69.5477 33.7128 67.0712 32.611 64.2178Z" fill="#252629"/>
<path d="M57.3324 21.4126C58.9052 23.4451 60.2772 25.9219 61.3791 28.7752C62.6058 28.0013 63.7755 27.1292 64.8788 26.1528C62.6096 24.1462 60.0717 22.5437 57.3324 21.4126Z" fill="#252629"/>
<path d="M48.9326 19.6954V32.8384C52.0647 32.6184 55.0862 31.8785 57.8986 30.6402C55.7759 24.8801 52.5659 20.7905 48.9326 19.6954Z" fill="#252629"/>
<path d="M61.3791 64.2178C60.2771 67.0712 58.9052 69.5481 57.3322 71.5806C60.0727 70.4493 62.6109 68.8466 64.879 66.8402C63.7752 65.864 62.6056 64.9913 61.3791 64.2178Z" fill="#252629"/>
<path d="M64.3792 48.4341C64.2352 52.7537 63.6197 56.8026 62.6125 60.4342C64.3776 61.4712 66.044 62.6894 67.5965 64.082C71.3833 59.6711 73.6175 54.2347 74.0262 48.4341H64.3792Z" fill="#252629"/>
<path d="M93.2626 21.3514C93.1658 20.557 92.6038 19.9176 91.8289 19.7045C60.3057 11.4507 48.4288 0.620071 48.332 0.52306C47.5764 -0.174516 46.4138 -0.174516 45.6777 0.52306C45.5614 0.619875 33.6845 11.4505 2.16132 19.7043C1.38641 19.9175 0.824409 20.5568 0.727595 21.3512C0.669546 21.8742 -4.77489 73.5669 46.317 92.8644C46.5301 92.9613 46.7627 93 46.9951 93C47.2277 93 47.4601 92.9613 47.6732 92.8644C98.7651 73.5669 93.3206 21.8744 93.2626 21.3514ZM69.106 68.2008C63.2424 74.193 55.3883 77.4967 46.9951 77.4967C38.602 77.4967 30.7478 74.193 24.8785 68.1952C19.1511 62.3828 15.995 54.6745 15.995 46.4968C15.995 38.3171 19.1509 30.609 24.884 24.7924C30.7458 18.8001 38.5998 15.4966 46.9949 15.4966C55.39 15.4966 63.2442 18.8001 69.1115 24.7979C74.8389 30.6088 77.995 38.3171 77.995 46.4966C77.995 54.6743 74.8391 62.3826 69.106 68.2008Z" fill="#252629"/>
<path d="M67.597 28.9102C66.044 30.3026 64.3777 31.521 62.6128 32.558C63.6199 36.1897 64.2354 40.2388 64.3795 44.5589H74.0267C73.6176 38.7551 71.3824 33.317 67.597 28.9102Z" fill="#252629"/>
<path d="M48.9326 60.1545V73.2975C52.5659 72.2024 55.7761 68.1128 57.8988 62.3525C55.0866 61.114 52.0653 60.3741 48.9326 60.1545Z" fill="#252629"/>
<path d="M59.0611 34.3781C55.8786 35.7248 52.4614 36.4971 48.9324 36.7136V44.5591H60.5066C60.3712 40.9398 59.8651 37.4976 59.0611 34.3781Z" fill="#252629"/>
<path d="M48.9326 48.4341V56.2794C52.462 56.4961 55.8791 57.2678 59.0613 58.6146C59.8652 55.4951 60.3715 52.053 60.5069 48.4341H48.9326Z" fill="#252629"/>
</g>
<defs>
<clipPath id="clip0_1_80">
<rect width="93" height="93" fill="white" transform="translate(0.494995)"/>
</clipPath>
</defs>
</svg>
