<svg width="106" height="106" viewBox="0 0 106 106" fill="none" xmlns="http://www.w3.org/2000/svg">
<path d="M104.589 84.665L62.0148 10.9255C60.1333 7.66659 56.7632 5.72046 52.9998 5.72046C49.2363 5.72046 45.8662 7.66616 43.9847 10.9255L1.41145 84.665C-0.470485 87.9239 -0.470485 91.8153 1.41145 95.0747C3.29339 98.334 6.66305 100.28 10.4265 100.28H95.5744C99.3374 100.28 102.707 98.334 104.589 95.0751C106.47 91.8158 106.47 87.9243 104.589 84.665ZM53.0002 88.2832C49.2639 88.2832 46.2243 85.2436 46.2243 81.5073C46.2243 77.7714 49.2639 74.7318 53.0002 74.7318C56.7365 74.7318 59.7761 77.7714 59.7761 81.5073C59.7757 85.244 56.7361 88.2832 53.0002 88.2832ZM59.8218 59.3191C59.8218 63.0804 56.7615 66.1407 53.0002 66.1407C49.2389 66.1407 46.1786 63.0804 46.1786 59.3191V28.0108C46.1786 26.2262 47.6254 24.7794 49.41 24.7794H56.5909C58.3759 24.7794 59.8223 26.2262 59.8223 28.0108V59.3191H59.8218Z" fill="#101113"/>
</svg>
