<svg width="106" height="106" viewBox="0 0 106 106" fill="none" xmlns="http://www.w3.org/2000/svg">
<g clip-path="url(#clip0_1_375)">
<path d="M52.9983 0.00195312C23.7312 0.00195312 0 23.7315 0 53.0003C0 82.2691 23.7312 105.999 52.9983 105.999C82.2724 105.999 106 82.2693 106 53.0003C106 23.7313 82.2724 0.00195312 52.9983 0.00195312ZM62.3044 77.3323C60.1606 79.7115 58.9319 81.1255 56.6179 83.3376C53.1153 86.6868 49.1382 87.5784 46.0462 84.2726C41.6019 79.5193 46.2632 65.0592 46.3769 64.5117C47.2116 60.6683 48.8778 52.9868 48.8778 52.9868C48.8778 52.9868 45.2781 55.1905 43.1412 55.972C41.565 56.548 39.7821 55.7917 39.3413 54.2673C38.9306 52.855 39.2577 51.9567 40.1227 50.9917C42.2663 48.6141 43.495 47.2001 45.8092 44.988C49.3151 41.6372 53.2888 40.7474 56.3808 44.0514C60.8252 48.8046 57.546 56.6248 56.3941 62.166C56.2806 62.7152 53.549 75.3388 53.549 75.3388C53.549 75.3388 57.1487 73.1349 59.2857 72.3519C60.8649 71.7776 62.6481 72.5356 63.0888 74.0583C63.4998 75.4708 63.1694 76.3689 62.3044 77.3323ZM56.5545 36.4633C51.6094 36.8972 47.2518 33.241 46.8176 28.2924C46.387 23.3489 50.0432 18.9896 54.9885 18.559C59.9304 18.1248 64.2913 21.7845 64.7221 26.728C65.156 31.6717 61.4964 36.0326 56.5545 36.4633Z" fill="black"/>
</g>
<defs>
<clipPath id="clip0_1_375">
<rect width="106" height="106" fill="white"/>
</clipPath>
</defs>
</svg>
