<svg width="40" height="40" viewBox="0 0 40 40" fill="none" xmlns="http://www.w3.org/2000/svg">
<g clip-path="url(#clip0_1_143)">
<g filter="url(#filter0_d_1_143)">
<path d="M34.155 6.59003H4.90503C4.00757 6.59003 3.28003 7.31756 3.28003 8.21503V30.965C3.28003 31.8625 4.00757 32.59 4.90503 32.59H34.155C35.0525 32.59 35.78 31.8625 35.78 30.965V8.21503C35.78 7.31756 35.0525 6.59003 34.155 6.59003Z" stroke="black" stroke-width="2" stroke-linecap="round" stroke-linejoin="round" shape-rendering="crispEdges"/>
</g>
<path d="M3.28003 8.21503C3.28003 7.31756 4.00757 6.59003 4.90503 6.59003H34.155C35.0525 6.59003 35.78 7.31756 35.78 8.21503V13.09H3.28003V8.21503Z" fill="#2F88FF" stroke="black" stroke-width="2" stroke-linecap="round" stroke-linejoin="round"/>
<path d="M20.3425 18.7775L18.7175 27.715" stroke="black" stroke-width="2" stroke-linecap="round"/>
<path d="M25.2175 18.7775L30.0925 22.84L25.2175 27.715" stroke="black" stroke-width="2" stroke-linecap="round" stroke-linejoin="round"/>
<path d="M13.8425 18.7775L8.96753 22.84L13.8425 27.715" stroke="black" stroke-width="2" stroke-linecap="round" stroke-linejoin="round"/>
</g>
<defs>
<filter id="filter0_d_1_143" x="-1.71997" y="5.59003" width="42.5" height="36" filterUnits="userSpaceOnUse" color-interpolation-filters="sRGB">
<feFlood flood-opacity="0" result="BackgroundImageFix"/>
<feColorMatrix in="SourceAlpha" type="matrix" values="0 0 0 0 0 0 0 0 0 0 0 0 0 0 0 0 0 0 127 0" result="hardAlpha"/>
<feOffset dy="4"/>
<feGaussianBlur stdDeviation="2"/>
<feComposite in2="hardAlpha" operator="out"/>
<feColorMatrix type="matrix" values="0 0 0 0 0 0 0 0 0 0 0 0 0 0 0 0 0 0 0.25 0"/>
<feBlend mode="normal" in2="BackgroundImageFix" result="effect1_dropShadow_1_143"/>
<feBlend mode="normal" in="SourceGraphic" in2="effect1_dropShadow_1_143" result="shape"/>
</filter>
<clipPath id="clip0_1_143">
<rect width="39" height="39" fill="white" transform="translate(0.0300293 0.0900269)"/>
</clipPath>
</defs>
</svg>
