<svg width="94" height="79" viewBox="0 0 94 79" fill="none" xmlns="http://www.w3.org/2000/svg">
<path d="M87.3163 0.12085H6.67368C3.25938 0.12085 0.494995 2.88814 0.494995 6.29954V57.8798C0.494995 61.2912 3.25938 64.0585 6.67368 64.0585H40.4559V65.435C40.4559 68.8464 37.6915 71.6137 34.2772 71.6137H25.1981V78.8793H38.492H55.4981H68.7919V71.6137H59.7127C56.2984 71.6137 53.5341 68.8466 53.5341 65.435V64.0585H87.3163C90.7306 64.0585 93.495 61.2914 93.495 57.8798V6.29954C93.495 2.88814 90.7306 0.12085 87.3163 0.12085ZM84.7762 50.3728C84.7762 51.511 83.8539 52.4333 82.7157 52.4333H11.2743C10.1361 52.4333 9.21375 51.511 9.21375 50.3728V10.9001C9.21375 9.76197 10.1361 8.8396 11.2743 8.8396H82.7159C83.8541 8.8396 84.7764 9.76197 84.7764 10.9001V50.3728H84.7762Z" fill="#252629"/>
</svg>
