<svg width="94" height="93" viewBox="0 0 94 93" fill="none" xmlns="http://www.w3.org/2000/svg">
<g clip-path="url(#clip0_1_66)">
<path d="M15.7501 71.5204L12.97 73.1784C12.8972 73.2203 12.4475 73.2026 11.7375 72.748C10.8075 72.1526 9.84362 71.0937 9.09489 69.8384L3.50062 60.4663C3.04448 59.698 2.04983 59.4489 1.28334 59.9067C0.516847 60.3645 0.266029 61.3558 0.723692 62.1238L6.31796 71.4962C7.33037 73.1911 8.63553 74.603 9.99398 75.4714C10.9903 76.1102 11.9704 76.4304 12.8695 76.4304C13.5019 76.4304 14.0953 76.2721 14.6291 75.9535L17.4076 74.2958C18.1742 73.838 18.4249 72.8467 17.9672 72.0784C17.5112 71.3121 16.5183 71.0629 15.7501 71.5204Z" fill="#252629"/>
<path d="M64.146 75.3C63.2516 75.3 62.5287 76.0231 62.5287 76.9173V80.1518C62.5287 80.5545 60.808 81.7691 57.6768 81.7691H46.76C45.8657 81.7691 45.1428 82.4921 45.1428 83.3863C45.1428 84.2808 45.8658 85.0035 46.76 85.0035H57.6768C62.2877 85.0035 65.7632 82.9171 65.7632 80.1515V76.9169C65.7632 76.0244 65.0403 75.3 64.146 75.3Z" fill="#252629"/>
<path d="M63.85 47.2577L56.5286 44.4176L73.6105 35.6536C75.8538 34.1899 76.3583 31.2706 74.7394 29.1375L69.9554 23.5223C69.2923 22.1962 67.9355 21.2758 66.3506 21.2758H27.5356C25.3021 21.2758 23.4924 23.0856 23.4924 25.3189C23.4924 27.5525 25.3022 29.3621 27.5356 29.3621H54.5427L36.5129 38.1572C36.4853 38.1702 36.4564 38.1863 36.4272 38.1976L36.2995 38.2607L36.3076 38.2656C36.2865 38.2752 36.2689 38.2899 36.2494 38.2994C36.12 38.3659 35.9939 38.4354 35.8709 38.513C35.7336 38.6005 35.6025 38.6926 35.4731 38.7945C35.3534 38.8883 35.2402 38.982 35.1286 39.087C35.0105 39.1987 34.8989 39.3182 34.7922 39.4412C34.6919 39.5576 34.5948 39.6773 34.5027 39.8067C34.4073 39.941 34.3232 40.0834 34.2407 40.2288C34.1938 40.3114 34.1355 40.3809 34.0918 40.4649L29.5617 49.6593L11.639 57.8365C9.20015 58.9494 8.12618 61.8279 9.23905 64.2654C10.0541 66.0509 11.8154 67.1052 13.6558 67.1052C14.3286 67.1052 15.0143 66.9628 15.6661 66.6669L35.1626 57.7717C36.1814 57.3076 37.0063 56.5056 37.5011 55.5027L40.8328 48.7424L56.1437 54.681L50.8067 72.2757C50.0304 74.8407 51.4779 77.5495 54.0413 78.3273C54.5118 78.4697 54.9857 78.5377 55.4514 78.5377C57.5331 78.5377 59.4576 77.1874 60.0932 75.0927L66.7352 53.1932C67.4743 50.7608 66.2162 48.1764 63.85 47.2577Z" fill="#252629"/>
<path d="M71.8297 17.5125C71.8297 21.8178 75.3312 25.3208 79.6397 25.3208C83.9466 25.3208 87.4367 21.8178 87.4367 17.5125C87.4367 13.2041 83.9466 9.71228 79.6397 9.71228C75.3312 9.71228 71.8297 13.2041 71.8297 17.5125Z" fill="#252629"/>
<path d="M61.5293 9.61367C61.5293 8.71932 60.8064 7.99646 59.9121 7.99646H35.2482C34.3538 7.99646 33.631 8.71932 33.631 9.61367C33.631 10.508 34.3538 11.2309 35.2482 11.2309H59.9119C60.8047 11.2309 61.5293 10.508 61.5293 9.61367Z" fill="#252629"/>
<path d="M25.1402 13.6731C24.2458 13.6731 23.5229 14.396 23.5229 15.2903C23.5229 16.1847 24.2458 16.9075 25.1402 16.9075H49.8039C50.6982 16.9075 51.4211 16.1847 51.4211 15.2903C51.4211 14.396 50.6982 13.6731 49.8039 13.6731H25.1402Z" fill="#252629"/>
<path d="M91.8777 39.1132H76.3953C75.5009 39.1132 74.7781 39.836 74.7781 40.7304C74.7781 41.6247 75.5009 42.3476 76.3953 42.3476H91.8777C92.772 42.3476 93.4949 41.6247 93.4949 40.7304C93.495 39.8375 92.7722 39.1132 91.8777 39.1132Z" fill="#252629"/>
<path d="M85.5332 44.7899H70.0508C69.1565 44.7899 68.4336 45.5128 68.4336 46.4071C68.4336 47.3016 69.1565 48.0243 70.0508 48.0243H85.5332C86.4275 48.0243 87.1504 47.3016 87.1504 46.4071C87.1504 45.5128 86.4275 44.7899 85.5332 44.7899Z" fill="#252629"/>
</g>
<defs>
<clipPath id="clip0_1_66">
<rect width="93" height="93" fill="white" transform="translate(0.494995)"/>
</clipPath>
</defs>
</svg>
